<?xml version="1.0" encoding="iso-8859-1"?>
<!-- Generator: Adobe Illustrator 16.0.0, SVG Export Plug-In . SVG Version: 6.00 Build 0)  -->
<!DOCTYPE svg PUBLIC "-//W3C//DTD SVG 1.1//EN" "http://www.w3.org/Graphics/SVG/1.1/DTD/svg11.dtd">
<svg version="1.1" xmlns="http://www.w3.org/2000/svg" xmlns:xlink="http://www.w3.org/1999/xlink" x="0px" y="0px" width="31px"
	 height="24px" viewBox="0 0 31 24" style="enable-background:new 0 0 31 24;" xml:space="preserve">
<g id="Layer_1">
	<path d="M11.104,16.062c0-2.236-1.167-3.805-3.258-4.449c1.799-0.693,2.675-2.184,2.675-4.01C10.521,5.059,8.697,3,5.729,3
		C4.368,3,3.443,3.257,2.471,3.772C1.838,4.08,1.279,4.414,1.279,5.031c0,0.49,0.365,0.875,0.852,0.875
		c0.364,0,0.68-0.309,1.361-0.643c0.559-0.309,1.216-0.515,2.115-0.515c1.97,0,3.138,1.414,3.138,3.112
		c0,1.311-0.608,2.211-1.629,2.674C6.532,10.818,5.9,10.92,5.097,10.92c-0.535,0-0.803,0.412-0.803,0.797
		c0,0.645,0.462,0.85,0.924,0.85c0.705,0,1.386,0.076,1.946,0.283c1.361,0.514,2.115,1.541,2.115,3.059
		c0,2.057-1.434,3.447-3.818,3.447c-0.949,0-1.605-0.182-2.115-0.387c-0.681-0.256-1.071-0.617-1.484-0.617
		c-0.486,0-0.851,0.412-0.851,0.9c0,0.564,0.656,1.055,1.727,1.389C3.517,20.846,4.465,21,5.607,21
		C8.964,21,11.104,18.969,11.104,16.062L11.104,16.062z M30,12c0-2.648-0.729-4.628-1.922-6.017
		c-1.726-2.032-4.134-2.751-6.906-2.751h-5.18c-0.56,0-0.973,0.463-0.973,1.003V19.74C15.02,20.279,15.44,21,16,21h5
		c2.164,0,4.137-0.668,5.911-2.031C28.76,17.555,30,15.293,30,12L30,12z M16.965,4.98h3.891c2.384,0,4.33,0.721,5.594,2.186
		c0.973,1.156,1.557,2.727,1.557,4.834c0,2.623-1.021,4.449-2.555,5.605C24.139,18.582,22.896,19,21,19h-4L16.965,4.98z"/>
</g>
<g id="Layer_2">
</g>
</svg>
