<?xml version="1.0" encoding="iso-8859-1"?>
<!-- Generator: Adobe Illustrator 16.0.0, SVG Export Plug-In . SVG Version: 6.00 Build 0)  -->
<!DOCTYPE svg PUBLIC "-//W3C//DTD SVG 1.1//EN" "http://www.w3.org/Graphics/SVG/1.1/DTD/svg11.dtd">
<svg version="1.1" id="Layer_1" xmlns="http://www.w3.org/2000/svg" xmlns:xlink="http://www.w3.org/1999/xlink" x="0px" y="0px"
	 width="41px" height="43px" viewBox="0 0 41 43" style="enable-background:new 0 0 41 43;" xml:space="preserve">
<g>
	<g>
		<path style="fill:#231F20;" d="M39.948,8.75C39.638,3.715,29.776,1,20.481,1S1.325,3.715,1.015,8.75H1v25.27
			c0,5.054,10.031,7.988,19.469,7.988c9.438,0,19.469-2.935,19.469-7.988H40V8.75H39.948z M3,8.811
			c0.297-2.79,7.382-5.818,17.481-5.818c10.319,0,17.511,3.162,17.511,6c0,2.837-7.191,5.999-17.511,5.999
			c-10.1,0-17.184-3.028-17.481-5.817V8.811z M38,34.02h-0.033c0,2.021-7.187,5.995-17.498,5.995S2.972,36.041,2.972,34.02H3v-0.997
			c3.393,2.905,10.586,3.93,17.469,3.93c6.925,0,14.165-1.037,17.531-3.984V34.02z M38,28.966h-0.033
			c0,3.032-7.187,5.994-17.498,5.994C10.376,34.96,3.297,32.122,3,29.159v-1.19c3.393,2.906,10.586,3.931,17.469,3.931
			c6.925,0,14.165-1.038,17.531-3.985V28.966z M38,23.912h-0.033c0,3.032-7.187,5.995-17.498,5.995
			c-10.092,0-17.171-2.839-17.469-5.802v-1.19c3.393,2.905,10.586,3.93,17.469,3.93c6.925,0,14.165-1.037,17.531-3.985V23.912z
			 M38,18.857h-0.033c0,3.033-7.187,5.994-17.498,5.994c-10.092,0-17.171-2.837-17.469-5.801v-1.189
			c3.393,2.906,10.586,3.931,17.469,3.931c6.925,0,14.165-1.038,17.531-3.986V18.857z M38,13.804h-0.033
			c0,3.032-7.187,5.995-17.498,5.995C10.376,19.799,3.297,16.96,3,13.997v-1.323c3.395,2.82,10.593,4.311,17.481,4.311
			c6.913,0,14.14-1.502,17.519-4.343V13.804z M16.709,11.892c0.027,0.227,0.06,0.413,0.477,0.629
			c0.418,0.216,5.207,0.022,5.207,0.022c2.977,0,4.514-0.931,4.258-2.279c-0.257-1.349-2.158-2.276-5.028-2.27L18.965,8l-0.217-1.6
			l4.828-0.015c0.564-0.002,0.783-0.014,1.027-0.092c0.316-0.101,0.504-0.332,0.453-0.604c-0.05-0.273-0.32-0.501-0.67-0.601
			c-0.271-0.077-0.49-0.09-1.049-0.088l-5.82,0.015c-0.389,0.002-0.872-0.009-1.217,0.209c-0.345,0.217-0.312,0.477-0.285,0.704
			L16.709,11.892z M21.681,9.374c1.234-0.002,2.094,0.441,2.204,1.087c0.109,0.646-0.612,1.091-1.867,1.092l-2.569,0.001
			l-0.296-2.177L21.681,9.374z M7,10h5c0.552,0,1-0.452,1-1.011s-0.448-1.011-1-1.011H7c-0.552,0-1,0.452-1,1.011S6.448,10,7,10z
			 M29,10h5c0.553,0,1-0.452,1-1.011s-0.447-1.011-1-1.011h-5c-0.553,0-1,0.452-1,1.011S28.447,10,29,10z"/>
	</g>
</g>
</svg>
