<?xml version="1.0" encoding="iso-8859-1"?>
<!-- Generator: Adobe Illustrator 16.0.0, SVG Export Plug-In . SVG Version: 6.00 Build 0)  -->
<!DOCTYPE svg PUBLIC "-//W3C//DTD SVG 1.1//EN" "http://www.w3.org/Graphics/SVG/1.1/DTD/svg11.dtd">
<svg version="1.1" id="Layer_1" xmlns="http://www.w3.org/2000/svg" xmlns:xlink="http://www.w3.org/1999/xlink" x="0px" y="0px"
	 width="44px" height="50px" viewBox="0 0 44 50" style="enable-background:new 0 0 44 50;" xml:space="preserve">
<g>
	<g>
		<path style="fill:#231F20;" d="M37.998,13.867C37.951,12.829,37.093,12,36.045,12H30.93V9.767C30.93,5.054,26.852,1,22.024,1
			h-0.212c-4.814,0-8.882,4.054-8.882,8.767V12H7.956c-1.014,0-1.907,0.921-1.954,1.992L1.012,46.644L1,46.795
			C1,47.836,1.836,49,2.956,49h38.089C42.164,49,43,47.836,43,46.795L37.998,13.867z M14.93,9.767C14.93,6.138,18.082,3,21.812,3
			h0.212c3.743,0,6.905,3.138,6.905,6.767V12h-14V9.767z M7.989,14.231L8,14.082C8.001,14.061,8.018,14.025,8.036,14l4.895-0.008V18
			h2v-4.011l14-0.022V18h2v-4.036L36,13.956L40.108,41H3.897L7.989,14.231z M40.916,47H3.084c-0.033-0.047-0.065-0.114-0.078-0.167
			L3.592,43h36.82l0.582,3.833C40.981,46.886,40.949,46.953,40.916,47z"/>
	</g>
</g>
</svg>
