<?xml version="1.0" encoding="iso-8859-1"?>
<!-- Generator: Adobe Illustrator 16.0.0, SVG Export Plug-In . SVG Version: 6.00 Build 0)  -->
<!DOCTYPE svg PUBLIC "-//W3C//DTD SVG 1.1//EN" "http://www.w3.org/Graphics/SVG/1.1/DTD/svg11.dtd">
<svg version="1.1" id="Layer_1" xmlns="http://www.w3.org/2000/svg" xmlns:xlink="http://www.w3.org/1999/xlink" x="0px" y="0px"
	 width="46px" height="46px" viewBox="0 0 46 46" style="enable-background:new 0 0 46 46;" xml:space="preserve">
<g>
	<g>
		<path style="fill:#231F20;" d="M40.316,23.043l3.685-3.701c0.711-0.715,0.711-1.879,0-2.597L28.847,1.521
			c-0.691-0.695-1.905-0.696-2.599,0.001L1.451,26.433c-0.712,0.716-0.712,1.881,0,2.597l15.154,15.224
			c0.346,0.348,0.807,0.539,1.298,0.539h0.001c0.491,0,0.953-0.19,1.3-0.539l3.868-3.886c2.252,2.81,5.7,4.615,9.564,4.615
			c6.771,0,12.28-5.531,12.28-12.331C44.917,28.77,43.117,25.306,40.316,23.043z M2.98,27.73L27.548,3.052l3.481,3.498L6.463,31.229
			L2.98,27.73z M17.904,42.724L8.58,33.356l24.566-24.68l9.325,9.368L38.633,21.9c-1.775-1.003-3.818-1.581-5.996-1.581
			c-6.771,0-12.28,5.532-12.28,12.332c0,2.188,0.576,4.241,1.576,6.024L17.904,42.724z M32.637,42.982
			c-5.669,0-10.28-4.635-10.28-10.331c0-5.697,4.611-10.332,10.28-10.332s10.28,4.635,10.28,10.332
			C42.917,38.348,38.306,42.982,32.637,42.982z M33.277,31.581h-2.36v-2h4.021c0.426,0,0.592-0.148,0.786-0.25
			c0.253-0.131,0.426-0.562,0.426-0.918s-0.173-0.631-0.426-0.761c-0.194-0.102-0.36-0.071-0.786-0.071h-4.433
			c-0.296,0-0.845-0.045-1.126,0.237c-0.281,0.283-0.463,0.608-0.463,0.905v7.86c0,0.297,0.182,0.549,0.463,0.832
			c0.281,0.282,0.83,0.165,1.126,0.165h2.771c2.137,0,3.393-1.245,3.393-3S35.414,31.581,33.277,31.581z M33.163,35.581h-2.246v-2
			h2.246c0.908,0,1.486,0.159,1.486,1S34.071,35.581,33.163,35.581z M26.362,31.581h-2.006c-0.553,0-1,0.447-1,1s0.447,1,1,1h2.006
			c0.553,0,1-0.447,1-1S26.915,31.581,26.362,31.581z M40.917,31.581h-2.006c-0.553,0-1,0.447-1,1s0.447,1,1,1h2.006
			c0.553,0,1-0.447,1-1S41.47,31.581,40.917,31.581z"/>
	</g>
</g>
</svg>
