<?xml version="1.0" encoding="iso-8859-1"?>
<!-- Generator: Adobe Illustrator 16.0.0, SVG Export Plug-In . SVG Version: 6.00 Build 0)  -->
<!DOCTYPE svg PUBLIC "-//W3C//DTD SVG 1.1//EN" "http://www.w3.org/Graphics/SVG/1.1/DTD/svg11.dtd">
<svg version="1.1" id="Layer_1" xmlns="http://www.w3.org/2000/svg" xmlns:xlink="http://www.w3.org/1999/xlink" x="0px" y="0px"
	 width="25.979px" height="25px" viewBox="0 0 25.979 25" style="enable-background:new 0 0 25.979 25;" xml:space="preserve">
<path style="fill:#231F20;" d="M14.414,12l5.293-5.293c0.391-0.391,0.391-1.023,0-1.414c-0.391-0.391-1.023-0.391-1.414,0L13,10.585
	L7.707,5.293c-0.391-0.391-1.023-0.391-1.414,0c-0.391,0.391-0.391,1.023,0,1.414L11.586,12l-5.293,5.293
	c-0.391,0.391-0.391,1.023,0,1.414C6.488,18.902,6.744,19,7,19s0.512-0.098,0.707-0.293L13,13.414l5.293,5.293
	C18.488,18.902,18.744,19,19,19s0.512-0.098,0.707-0.293c0.391-0.391,0.391-1.023,0-1.414L14.414,12z"/>
</svg>
