<?xml version="1.0" encoding="iso-8859-1"?>
<!-- Generator: Adobe Illustrator 16.0.0, SVG Export Plug-In . SVG Version: 6.00 Build 0)  -->
<!DOCTYPE svg PUBLIC "-//W3C//DTD SVG 1.1//EN" "http://www.w3.org/Graphics/SVG/1.1/DTD/svg11.dtd">
<svg version="1.1" id="Layer_1" xmlns="http://www.w3.org/2000/svg" xmlns:xlink="http://www.w3.org/1999/xlink" x="0px" y="0px"
	 width="25px" height="25px" viewBox="0 0 25 25" style="enable-background:new 0 0 25 25;" xml:space="preserve">
<path d="M21.072,1h-5.751C14.534,1,14,1.605,14,2.352V11h-4V7.575C10,6.828,9.465,6,8.678,6h-4.75C3.141,6,2,6.828,2,7.575v13.072
	C2,21.393,3.141,22,3.928,22h17.145C21.859,22,22,21.393,22,20.647V2.352C22,1.605,21.859,1,21.072,1z M8,12.243V20H4V8h4V12.243z
	 M14,20h-4v-7h4V20z M20,20h-4V3h4V20z"/>
</svg>
