<?xml version="1.0" encoding="iso-8859-1"?>
<!-- Generator: Adobe Illustrator 16.0.0, SVG Export Plug-In . SVG Version: 6.00 Build 0)  -->
<!DOCTYPE svg PUBLIC "-//W3C//DTD SVG 1.1//EN" "http://www.w3.org/Graphics/SVG/1.1/DTD/svg11.dtd">
<svg version="1.1" id="Layer_1" xmlns="http://www.w3.org/2000/svg" xmlns:xlink="http://www.w3.org/1999/xlink" x="0px" y="0px"
	 width="40px" height="40px" viewBox="0 0 40 40" style="enable-background:new 0 0 40 40;" xml:space="preserve">
<path d="M21.414,20L38.707,2.707c0.391-0.391,0.391-1.023,0-1.414s-1.023-0.391-1.414,0L20,18.586L2.707,1.293
	c-0.391-0.391-1.023-0.391-1.414,0s-0.391,1.023,0,1.414L18.586,20L1.293,37.293c-0.391,0.391-0.391,1.023,0,1.414
	C1.488,38.902,1.744,39,2,39s0.512-0.098,0.707-0.293L20,21.414l17.293,17.293C37.488,38.902,37.744,39,38,39
	s0.512-0.098,0.707-0.293c0.391-0.391,0.391-1.023,0-1.414L21.414,20z"/>
</svg>
