<?xml version="1.0" encoding="iso-8859-1"?>
<!-- Generator: Adobe Illustrator 16.0.0, SVG Export Plug-In . SVG Version: 6.00 Build 0)  -->
<!DOCTYPE svg PUBLIC "-//W3C//DTD SVG 1.1//EN" "http://www.w3.org/Graphics/SVG/1.1/DTD/svg11.dtd">
<svg version="1.1" id="Layer_1" xmlns="http://www.w3.org/2000/svg" xmlns:xlink="http://www.w3.org/1999/xlink" x="0px" y="0px"
	 width="58px" height="44px" viewBox="0 0 58 44" style="enable-background:new 0 0 58 44;" xml:space="preserve">
<g>
	<g>
		<path style="fill:#231F20;" d="M54.002,2H16c-1.654,0-3,1.28-3,2.586V14H4c-1.654,0-3,1.313-3,2.926V39.04
			c0,1.614,1.346,2.927,3,2.927h38.001c1.654,0,2.999-1.312,2.999-2.927V31h9.002C55.655,31,57,29.922,57,28V4.586
			C57,3.28,55.655,2,54.002,2z M43.001,39.04c0,0.538-0.449,0.976-1,0.976H4c-0.552,0-1-0.438-1-0.976V16.926
			c0-0.538,0.448-0.976,1-0.976h38.001c0.551,0,1,0.438,1,0.976V39.04z M55.001,28.024c0,0.538-0.449,0.976-0.999,0.976H45V16.926
			C45,15.313,43.655,14,42.001,14H15v-3h40.001V28.024z M55.001,7h-40V4.894c0-0.539,0.447-0.977,0.999-0.977h38.002
			c0.55,0,0.999,0.438,0.999,0.977V7z M10,28h7c1.654,0,3-1.312,3-2.927v-3.146C20,20.312,18.654,19,17,19h-7
			c-1.654,0-3,1.312-3,2.927v3.146C7,26.688,8.346,28,10,28z M9,21.927c0-0.538,0.449-0.975,1-0.975h7c0.553,0,1,0.437,1,0.975
			v3.146c0,0.538-0.447,0.976-1,0.976h-7c-0.551,0-1-0.438-1-0.976V21.927z M7,36h32.001v-2H7V36z"/>
	</g>
</g>
</svg>
