<?xml version="1.0" encoding="iso-8859-1"?>
<!-- Generator: Adobe Illustrator 16.0.0, SVG Export Plug-In . SVG Version: 6.00 Build 0)  -->
<!DOCTYPE svg PUBLIC "-//W3C//DTD SVG 1.1//EN" "http://www.w3.org/Graphics/SVG/1.1/DTD/svg11.dtd">
<svg version="1.1" xmlns="http://www.w3.org/2000/svg" xmlns:xlink="http://www.w3.org/1999/xlink" x="0px" y="0px" width="25px"
	 height="25px" viewBox="0 0 25 25" style="enable-background:new 0 0 25 25;" xml:space="preserve">
<g id="Layer_1">
	<g>
		<path d="M20.793,16.5H7.105l0.491-2.124l13.267-0.947c0.449-0.031,0.822-0.359,0.91-0.801l1-5c0.055-0.279-0.01-0.568-0.182-0.796
			c-0.17-0.228-0.43-0.372-0.713-0.396L6.296,5.08L5.944,3.129C5.886,2.812,5.681,2.543,5.391,2.404L2.432,0.695
			C1.935,0.458,1.336,0.667,1.098,1.166C0.86,1.664,1.071,2.261,1.569,2.5l2.498,1.487l1.707,9.435l-0.92,3.835
			c-0.075,0.299-0.008,0.615,0.182,0.858S5.516,18.5,5.824,18.5h14.969c0.553,0,1-0.447,1-1S21.346,16.5,20.793,16.5z M20.594,8.331
			l-0.633,3.157L7.617,12.37l-0.95-5.25L20.594,8.331z"/>
		<path d="M6.408,19.27c-0.892,0-1.615,0.724-1.615,1.615S5.516,22.5,6.408,22.5s1.615-0.724,1.615-1.615S7.299,19.27,6.408,19.27z"
			/>
		<path d="M19.559,19.27c-0.893,0-1.615,0.724-1.615,1.615s0.723,1.615,1.615,1.615c0.891,0,1.615-0.724,1.615-1.615
			S20.449,19.27,19.559,19.27z"/>
	</g>
</g>
<g id="Layer_2">
</g>
</svg>
