<?xml version="1.0" encoding="iso-8859-1"?>
<!-- Generator: Adobe Illustrator 16.0.0, SVG Export Plug-In . SVG Version: 6.00 Build 0)  -->
<!DOCTYPE svg PUBLIC "-//W3C//DTD SVG 1.1//EN" "http://www.w3.org/Graphics/SVG/1.1/DTD/svg11.dtd">
<svg version="1.1" id="Layer_1" xmlns="http://www.w3.org/2000/svg" xmlns:xlink="http://www.w3.org/1999/xlink" x="0px" y="0px"
	 width="25.979px" height="25px" viewBox="0 0 25.979 25" style="enable-background:new 0 0 25.979 25;" xml:space="preserve">
<g>
	<path style="fill:#231F20;" d="M2.989,10.021C1.341,10.021,0,11.362,0,13.011S1.341,16,2.989,16s2.989-1.341,2.989-2.989
		S4.638,10.021,2.989,10.021z M2.989,14.2c-0.656,0-1.189-0.534-1.189-1.189s0.534-1.189,1.189-1.189s1.189,0.534,1.189,1.189
		S3.645,14.2,2.989,14.2z"/>
	<path style="fill:#231F20;" d="M22.989,10.021c-1.648,0-2.989,1.341-2.989,2.989S21.341,16,22.989,16s2.989-1.341,2.989-2.989
		S24.638,10.021,22.989,10.021z M22.989,14.2c-0.655,0-1.189-0.534-1.189-1.189s0.534-1.189,1.189-1.189s1.189,0.534,1.189,1.189
		S23.645,14.2,22.989,14.2z"/>
	<path style="fill:#231F20;" d="M12.989,10.021c-1.648,0-2.989,1.341-2.989,2.989S11.341,16,12.989,16s2.989-1.341,2.989-2.989
		S14.638,10.021,12.989,10.021z M12.989,14.2c-0.656,0-1.189-0.534-1.189-1.189s0.534-1.189,1.189-1.189
		c0.655,0,1.189,0.534,1.189,1.189S13.645,14.2,12.989,14.2z"/>
</g>
</svg>
