<?xml version="1.0" encoding="iso-8859-1"?>
<!-- Generator: Adobe Illustrator 16.0.0, SVG Export Plug-In . SVG Version: 6.00 Build 0)  -->
<!DOCTYPE svg PUBLIC "-//W3C//DTD SVG 1.1//EN" "http://www.w3.org/Graphics/SVG/1.1/DTD/svg11.dtd">
<svg version="1.1" xmlns="http://www.w3.org/2000/svg" xmlns:xlink="http://www.w3.org/1999/xlink" x="0px" y="0px" width="25px"
	 height="25px" viewBox="0 0 25 25" style="enable-background:new 0 0 25 25;" xml:space="preserve">
<g id="Layer_1">
	<path d="M22,10c0.553,0,1-0.448,1-1V2c0-0.553-0.447-1-1-1h-7c-0.553,0-1,0.447-1,1c0,0.552,0.447,1,1,1h4.729L11.5,11.228L3.271,3
		H8c0.552,0,1-0.448,1-1c0-0.553-0.448-1-1-1H1C0.448,1,0,1.447,0,2v7c0,0.552,0.448,1,1,1s1-0.448,1-1V4.556l8.086,8.086L2,20.729
		V16c0-0.553-0.448-1-1-1s-1,0.447-1,1v7c0,0.553,0.448,1,1,1h7c0.552,0,1-0.447,1-1s-0.448-1-1-1H3.557l7.943-7.943L19.443,22H15
		c-0.553,0-1,0.447-1,1s0.447,1,1,1h7c0.553,0,1-0.447,1-1v-7c0-0.553-0.447-1-1-1s-1,0.447-1,1v4.729l-8.086-8.086L21,4.556V9
		C21,9.552,21.447,10,22,10z"/>
</g>
<g id="Layer_2">
</g>
</svg>
