<?xml version="1.0" encoding="iso-8859-1"?>
<!-- Generator: Adobe Illustrator 16.0.0, SVG Export Plug-In . SVG Version: 6.00 Build 0)  -->
<!DOCTYPE svg PUBLIC "-//W3C//DTD SVG 1.1//EN" "http://www.w3.org/Graphics/SVG/1.1/DTD/svg11.dtd">
<svg version="1.1" xmlns="http://www.w3.org/2000/svg" xmlns:xlink="http://www.w3.org/1999/xlink" x="0px" y="0px" width="25px"
	 height="25px" viewBox="0 0 25 25" style="enable-background:new 0 0 25 25;" xml:space="preserve">
<g id="Layer_1">
	<g>
		<g>
			<path d="M22,16h-9.143C12.41,14.279,10.858,13,9,13c-1.868,0-3.453,1.266-3.891,3H3c-0.553,0-1,0.447-1,1s0.447,1,1,1h2.141
				C5.625,19.75,7.132,21,9,21c1.858,0,3.41-1.279,3.857-3H22c0.553,0,1-0.447,1-1S22.553,16,22,16z M9,19c-1.103,0-2-0.896-2-2
				s0.897-2,2-2s2,0.896,2,2S10.103,19,9,19z"/>
		</g>
	</g>
	<path d="M22,8h-2.141C19.375,6.25,17.868,5,16,5c-1.858,0-3.41,1.279-3.857,3H3C2.447,8,2,8.447,2,9s0.447,1,1,1h9.143
		c0.447,1.721,1.999,3,3.857,3c1.868,0,3.453-1.266,3.891-3H22c0.553,0,1-0.447,1-1S22.553,8,22,8z M16,11c-1.103,0-2-0.896-2-2
		s0.897-2,2-2s2,0.896,2,2S17.103,11,16,11z"/>
</g>
<g id="Layer_2">
</g>
</svg>
