<?xml version="1.0" encoding="iso-8859-1"?>
<!-- Generator: Adobe Illustrator 16.0.0, SVG Export Plug-In . SVG Version: 6.00 Build 0)  -->
<!DOCTYPE svg PUBLIC "-//W3C//DTD SVG 1.1//EN" "http://www.w3.org/Graphics/SVG/1.1/DTD/svg11.dtd">
<svg version="1.1" id="Layer_1" xmlns="http://www.w3.org/2000/svg" xmlns:xlink="http://www.w3.org/1999/xlink" x="0px" y="0px"
	 width="25.979px" height="25px" viewBox="0 0 25.979 25" style="enable-background:new 0 0 25.979 25;" xml:space="preserve">
<path d="M23,6h-4.615C19.394,5.163,20,4.126,20,3c0-1.542-1.458-3-3-3c-2.618,0-4.143,1.956-5,3.777C11.143,1.956,9.618,0,7,0
	C5.458,0,4,1.458,4,3c0,1.126,0.606,2.163,1.615,3H1C0.447,6,0,6.447,0,7v4c0,0.553,0.447,1,1,1h1v10c0,0.553,0.447,1,1,1h7h4h7
	c0.553,0,1-0.447,1-1V12h1c0.553,0,1-0.447,1-1V7C24,6.447,23.553,6,23,6z M13,8v2h-2V8H13z M17,2c0.448,0,1,0.552,1,1
	c0,1.07-1.789,2.564-4.689,2.921C13.8,4.393,14.901,2,17,2z M7,2c2.121,0,3.215,2.394,3.696,3.922C7.792,5.566,6,4.071,6,3
	C6,2.552,6.552,2,7,2z M2,8h7v2H3H2V8z M4,12h5v9H4V12z M11,21v-9h2v9H11z M20,21h-5v-9h5V21z M22,10h-1h-6V8h7V10z"/>
</svg>
