<?xml version="1.0" encoding="iso-8859-1"?>
<!-- Generator: Adobe Illustrator 16.0.0, SVG Export Plug-In . SVG Version: 6.00 Build 0)  -->
<!DOCTYPE svg PUBLIC "-//W3C//DTD SVG 1.1//EN" "http://www.w3.org/Graphics/SVG/1.1/DTD/svg11.dtd">
<svg version="1.1" xmlns="http://www.w3.org/2000/svg" xmlns:xlink="http://www.w3.org/1999/xlink" x="0px" y="0px" width="25px"
	 height="25px" viewBox="0 0 25 25" style="enable-background:new 0 0 25 25;" xml:space="preserve">
<g id="Layer_1">
	<path d="M23.596,11.428l-1.681-1.364c0.219-0.354,0.334-0.591,0.355-0.637c0.235-0.499,0.022-1.096-0.479-1.331
		c-0.499-0.237-1.096-0.021-1.331,0.478c-0.022,0.048-2.311,4.756-7.979,4.756c-5.618,0-7.882-4.552-7.98-4.759
		C4.266,8.075,3.67,7.861,3.17,8.097c-0.5,0.236-0.713,0.832-0.478,1.331c0.022,0.045,0.137,0.283,0.355,0.638L1.37,11.428
		c-0.429,0.348-0.495,0.977-0.146,1.406C1.421,13.078,1.71,13.203,2,13.203c0.222,0,0.445-0.072,0.63-0.222l1.62-1.316
		c0.625,0.701,1.452,1.451,2.504,2.093l-0.891,1.818c-0.243,0.496-0.04,1.096,0.457,1.338c0.142,0.07,0.291,0.104,0.438,0.104
		c0.371,0,0.726-0.207,0.899-0.561l0.895-1.826c0.949,0.355,2.029,0.596,3.245,0.664V17c0,0.553,0.448,1,1,1
		c0.553,0,1.001-0.447,1.001-1v-1.744c0.965-0.105,1.829-0.33,2.613-0.625l0.895,1.826c0.174,0.355,0.529,0.561,0.898,0.561
		c0.147,0,0.299-0.033,0.439-0.104c0.496-0.242,0.701-0.842,0.457-1.338l-0.892-1.818c1.052-0.645,1.879-1.393,2.503-2.093
		l1.622,1.316c0.187,0.15,0.409,0.222,0.629,0.222c0.292,0,0.58-0.125,0.778-0.369C24.09,12.405,24.023,11.776,23.596,11.428z"/>
</g>
<g id="Layer_2">
</g>
</svg>
