<?xml version="1.0" encoding="iso-8859-1"?>
<!-- Generator: Adobe Illustrator 16.0.0, SVG Export Plug-In . SVG Version: 6.00 Build 0)  -->
<!DOCTYPE svg PUBLIC "-//W3C//DTD SVG 1.1//EN" "http://www.w3.org/Graphics/SVG/1.1/DTD/svg11.dtd">
<svg version="1.1" xmlns="http://www.w3.org/2000/svg" xmlns:xlink="http://www.w3.org/1999/xlink" x="0px" y="0px" width="25px"
	 height="25px" viewBox="0 0 25 25" style="enable-background:new 0 0 25 25;" xml:space="preserve">
<g id="Layer_1">
	<g>
		<g>
			<path d="M23.29,3.418c-0.038-0.491-0.429-0.882-0.92-0.92l-9.192-0.707c-0.3-0.019-0.578,0.084-0.784,0.29l-0.897,0.898
				c-0.391,0.391-0.391,1.025,0,1.414c0.391,0.391,1.025,0.391,1.414,0l0.572-0.573l7.879,0.606l0.606,7.88L11.686,22.588
				l-6.125-6.127c-0.391-0.391-1.023-0.391-1.414,0s-0.391,1.023,0,1.414l6.832,6.832C11.174,24.902,11.43,25,11.686,25
				s0.512-0.098,0.707-0.293l11.314-11.311c0.206-0.207,0.312-0.493,0.29-0.785L23.29,3.418z M18.757,12.688
				c0.756-0.756,1.172-1.759,1.172-2.829c0-1.068-0.416-2.072-1.172-2.828c-1.512-1.512-4.145-1.512-5.656,0
				c-0.756,0.756-1.172,1.76-1.172,2.828c0,1.07,0.416,2.073,1.172,2.829c0.756,0.755,1.76,1.171,2.828,1.171
				S18.001,13.443,18.757,12.688z M13.929,9.859c0-0.534,0.208-1.036,0.586-1.414s0.88-0.586,1.414-0.586s1.036,0.208,1.414,0.586
				s0.586,0.88,0.586,1.414c0,0.535-0.208,1.038-0.586,1.415c-0.756,0.755-2.072,0.755-2.828,0
				C14.137,10.897,13.929,10.395,13.929,9.859z M8.778,15.98c0.195,0.195,0.451,0.293,0.707,0.293s0.512-0.098,0.707-0.293
				c0.391-0.391,0.391-1.023,0-1.414l-3.536-3.535l3.536-3.536c0.391-0.391,0.391-1.023,0-1.414s-1.023-0.391-1.414,0L5.243,9.617
				L1.707,6.081c-0.391-0.391-1.023-0.391-1.414,0s-0.391,1.023,0,1.414l3.536,3.536l-3.536,3.535c-0.391,0.391-0.391,1.023,0,1.414
				C0.488,16.176,0.744,16.273,1,16.273s0.512-0.098,0.707-0.293l3.536-3.535L8.778,15.98z"/>
		</g>
	</g>
</g>
<g id="Layer_2">
</g>
</svg>
