<?xml version="1.0" encoding="iso-8859-1"?>
<!-- Generator: Adobe Illustrator 16.0.0, SVG Export Plug-In . SVG Version: 6.00 Build 0)  -->
<!DOCTYPE svg PUBLIC "-//W3C//DTD SVG 1.1//EN" "http://www.w3.org/Graphics/SVG/1.1/DTD/svg11.dtd">
<svg version="1.1" xmlns="http://www.w3.org/2000/svg" xmlns:xlink="http://www.w3.org/1999/xlink" x="0px" y="0px" width="25px"
	 height="25px" viewBox="0 0 25 25" style="enable-background:new 0 0 25 25;" xml:space="preserve">
<g id="Layer_1">
	<g>
		<g>
			<path d="M20,6.092V3c0-0.553-0.447-1-1-1H6C5.447,2,5,2.447,5,3v3.092C3.083,6.437,2,7.814,2,10v9c0,0.553,0.447,1,1,1h2v1
				c0,0.553,0.447,1,1,1h13c0.553,0,1-0.447,1-1v-1h2c0.553,0,1-0.447,1-1v-9C23,7.814,21.917,6.437,20,6.092z M7,4h11v2H7V4z
				 M18,20H7v-0.998c0,0,0,0,0-0.002c0-0.001,0-0.002,0-0.002V16h11V20z M21,18h-1v-3c0-0.553-0.447-1-1-1H6c-0.553,0-1,0.447-1,1v3
				H4v-8c0-1.439,0.561-2,2-2h13c1.439,0,2,0.561,2,2V18z M18,10c-0.553,0-1,0.447-1,1s0.447,1,1,1s1-0.447,1-1S18.553,10,18,10z"/>
		</g>
	</g>
</g>
<g id="Layer_2">
</g>
</svg>
