<?xml version="1.0" encoding="iso-8859-1"?>
<!-- Generator: Adobe Illustrator 16.0.0, SVG Export Plug-In . SVG Version: 6.00 Build 0)  -->
<!DOCTYPE svg PUBLIC "-//W3C//DTD SVG 1.1//EN" "http://www.w3.org/Graphics/SVG/1.1/DTD/svg11.dtd">
<svg version="1.1" id="Layer_1" xmlns="http://www.w3.org/2000/svg" xmlns:xlink="http://www.w3.org/1999/xlink" x="0px" y="0px"
	 width="48px" height="49px" viewBox="0 0 48 49" style="enable-background:new 0 0 48 49;" xml:space="preserve">
<g>
	<g>
		<path style="fill:#231F20;" d="M46.097,1.855c-0.575-0.539-1.362-0.815-2.143-0.763L26.783,2.274L2.166,28.562
			c-0.319,0.34-0.487,0.787-0.472,1.256c0.015,0.469,0.211,0.902,0.553,1.223l17.604,16.486C20.189,47.842,20.62,48,21.05,48
			c0.469,0,0.937-0.188,1.28-0.555l24.348-26.002l0.27-0.287L47,3.945C47.002,3.156,46.673,2.394,46.097,1.855z M45,20
			L21.039,45.898L3.794,29.75L27.705,4.215l16.386-1.128c0.246-0.018,0.465,0.064,0.64,0.228S45.001,3.7,45,3.939V20z M36.666,7.224
			c-1.214,0.039-2.34,0.55-3.17,1.437c-0.831,0.887-1.267,2.044-1.227,3.258c0.039,1.215,0.55,2.341,1.437,3.172
			c0.85,0.795,1.947,1.229,3.105,1.229c0.051,0,0.103-0.001,0.153-0.003c1.214-0.04,2.34-0.55,3.17-1.437
			c0.831-0.887,1.267-2.044,1.227-3.259c-0.039-1.214-0.55-2.341-1.437-3.171S37.876,7.179,36.666,7.224z M38.675,13.517
			c-0.465,0.497-1.096,0.787-1.775,0.81c-0.7,0.023-1.33-0.212-1.826-0.678c-0.497-0.465-0.783-1.076-0.805-1.757
			c-0.022-0.681,0.222-1.29,0.688-1.787c0.465-0.497,1.096-0.729,1.775-0.729h0.086c0.649,0,1.265,0.166,1.74,0.611
			c0.497,0.466,0.783,1.021,0.805,1.701C39.385,12.369,39.141,13.02,38.675,13.517z"/>
	</g>
</g>
</svg>
