<?xml version="1.0" encoding="iso-8859-1"?>
<!-- Generator: Adobe Illustrator 16.0.0, SVG Export Plug-In . SVG Version: 6.00 Build 0)  -->
<!DOCTYPE svg PUBLIC "-//W3C//DTD SVG 1.1//EN" "http://www.w3.org/Graphics/SVG/1.1/DTD/svg11.dtd">
<svg version="1.1" xmlns="http://www.w3.org/2000/svg" xmlns:xlink="http://www.w3.org/1999/xlink" x="0px" y="0px" width="25px"
	 height="25px" viewBox="0 0 25 25" style="enable-background:new 0 0 25 25;" xml:space="preserve">
<g id="Layer_1">
	<path d="M12.934,13.961h7.092c0.523,0,0.947-0.424,0.947-0.947c0-0.524-0.424-0.948-0.947-0.948h-7.092V4.975
		c0-0.523-0.424-0.947-0.947-0.947s-0.947,0.424-0.947,0.947v7.091H3.947C3.424,12.066,3,12.49,3,13.014
		c0,0.262,0.106,0.498,0.277,0.67c0.172,0.172,0.408,0.277,0.67,0.277h7.092v7.092c0,0.262,0.105,0.498,0.277,0.67
		S11.725,22,11.986,22c0.523,0,0.947-0.424,0.947-0.947V13.961z"/>
</g>
<g id="Layer_2">
</g>
</svg>
