<?xml version="1.0" encoding="iso-8859-1"?>
<!-- Generator: Adobe Illustrator 16.0.0, SVG Export Plug-In . SVG Version: 6.00 Build 0)  -->
<!DOCTYPE svg PUBLIC "-//W3C//DTD SVG 1.1//EN" "http://www.w3.org/Graphics/SVG/1.1/DTD/svg11.dtd">
<svg version="1.1" xmlns="http://www.w3.org/2000/svg" xmlns:xlink="http://www.w3.org/1999/xlink" x="0px" y="0px" width="25px"
	 height="25px" viewBox="0 0 25 25" style="enable-background:new 0 0 25 25;" xml:space="preserve">
<g id="Layer_1">
	<g>
		<g>
			<path d="M23.922,9.181C23.81,8.929,21.071,3,12.6,3C3.891,3,1.369,8.954,1.266,9.208c-0.187,0.46,0.034,0.985,0.495,1.173
				c0.11,0.045,0.226,0.066,0.339,0.066c0.354,0,0.691-0.212,0.834-0.562C2.954,9.835,5.089,4.801,12.6,4.801
				c7.255,0,9.579,4.896,9.68,5.115c0.202,0.452,0.732,0.655,1.187,0.454C23.92,10.167,24.124,9.635,23.922,9.181z M12.646,6.724
				c-7.685,0-9.936,7.138-9.957,7.21v0.58c0.021,0.072,2.272,7.209,9.957,7.209s9.936-7.137,9.957-7.209v-0.58
				C22.581,13.861,20.33,6.724,12.646,6.724z M12.646,19.723c-5.45,0-7.484-4.316-7.939-5.5c0.455-1.182,2.49-5.499,7.939-5.499
				c5.449,0,7.484,4.317,7.939,5.499C20.13,15.406,18.095,19.723,12.646,19.723z M12.6,10.836c-1.93,0-3.5,1.57-3.5,3.5
				c0,1.93,1.57,3.387,3.5,3.387s3.5-1.457,3.5-3.387C16.1,12.407,14.529,10.836,12.6,10.836z M12.6,15.836
				c-0.827,0-1.5-0.672-1.5-1.5c0-0.826,0.673-1.5,1.5-1.5s1.5,0.673,1.5,1.5C14.1,15.164,13.427,15.836,12.6,15.836z"/>
		</g>
	</g>
</g>
<g id="Layer_2">
</g>
</svg>
