<?xml version="1.0" encoding="iso-8859-1"?>
<!-- Generator: Adobe Illustrator 16.0.0, SVG Export Plug-In . SVG Version: 6.00 Build 0)  -->
<!DOCTYPE svg PUBLIC "-//W3C//DTD SVG 1.1//EN" "http://www.w3.org/Graphics/SVG/1.1/DTD/svg11.dtd">
<svg version="1.1" xmlns="http://www.w3.org/2000/svg" xmlns:xlink="http://www.w3.org/1999/xlink" x="0px" y="0px" width="25px"
	 height="25px" viewBox="0 0 25 25" style="enable-background:new 0 0 25 25;" xml:space="preserve">
<g id="Layer_1">
	<path d="M18,14c-1.341,0-2.523,0.669-3.249,1.685l-3.984-2.391C10.907,12.886,11,12.455,11,12s-0.093-0.886-0.233-1.295l3.984-2.39
		C15.477,9.331,16.659,10,18,10c2.206,0,4-1.794,4-4s-1.794-4-4-4s-4,1.794-4,4c0,0.139,0.027,0.272,0.041,0.409L9.662,9.036
		C8.953,8.399,8.026,8,7,8c-2.206,0-4,1.793-4,4s1.794,4,4,4c1.026,0,1.953-0.399,2.662-1.036l4.379,2.628
		C14.027,17.728,14,17.86,14,18c0,2.206,1.794,4,4,4s4-1.794,4-4S20.206,14,18,14z M18,4c1.103,0,2,0.897,2,2s-0.897,2-2,2
		s-2-0.898-2-2S16.897,4,18,4z M7,14c-1.103,0-2-0.897-2-2s0.897-2,2-2s2,0.897,2,2S8.103,14,7,14z M18,20c-1.103,0-2-0.897-2-2
		s0.897-2,2-2s2,0.897,2,2S19.103,20,18,20z"/>
</g>
<g id="Layer_2">
</g>
</svg>
