<?xml version="1.0" encoding="iso-8859-1"?>
<!-- Generator: Adobe Illustrator 16.0.0, SVG Export Plug-In . SVG Version: 6.00 Build 0)  -->
<!DOCTYPE svg PUBLIC "-//W3C//DTD SVG 1.1//EN" "http://www.w3.org/Graphics/SVG/1.1/DTD/svg11.dtd">
<svg version="1.1" xmlns="http://www.w3.org/2000/svg" xmlns:xlink="http://www.w3.org/1999/xlink" x="0px" y="0px" width="29px"
	 height="25px" viewBox="0 0 29 25" style="enable-background:new 0 0 29 25;" xml:space="preserve">
<g id="Layer_1">
	<g>
		<g>
			<path d="M25.026,2.11C24.896,1.167,24.399,1,23.804,1H4.058C3.578,1,3.104,1.292,3,2s-0.921,8.534-0.981,9.059S2.403,12,3,12h22
				c0.688,0,1.042-0.5,1-1C25.922,10.071,25.157,3.053,25.026,2.11z M3,11l1-9h20l1,9H3z M24.5,13c-0.31,0-0.5,0.248-0.5,0.562V22
				h-1v-8.486C23,13.232,22.773,13,22.496,13h-10.99C11.228,13,11,13.232,11,13.514V22h-1v-8.488C10,13.229,9.772,13,9.494,13H5.506
				C5.227,13,5,13.229,5,13.512V22H4v-8.417C4,13.269,3.81,13,3.5,13S3,13.269,3,13.583V23h22v-9.438C25,13.248,24.81,13,24.5,13z
				 M22,22H12v-8h10V22z"/>
		</g>
	</g>
</g>
<g id="Layer_2">
</g>
</svg>
