<?xml version="1.0" encoding="iso-8859-1"?>
<!-- Generator: Adobe Illustrator 16.0.0, SVG Export Plug-In . SVG Version: 6.00 Build 0)  -->
<!DOCTYPE svg PUBLIC "-//W3C//DTD SVG 1.1//EN" "http://www.w3.org/Graphics/SVG/1.1/DTD/svg11.dtd">
<svg version="1.1" xmlns="http://www.w3.org/2000/svg" xmlns:xlink="http://www.w3.org/1999/xlink" x="0px" y="0px" width="25px"
	 height="25px" viewBox="0 0 25 25" style="enable-background:new 0 0 25 25;" xml:space="preserve">
<g id="Layer_1">
	<g>
		<g>
			<path d="M21.836,11.955C21.143,10.237,18.501,5,12.077,5c-6.597,0-9.344,5.525-9.99,7.091c-0.106,0.259-0.103,0.3-0.103,0.409
				c0,0.126,0.004,0.174,0.128,0.469C2.802,14.611,5.562,20,12.077,20c6.42,0,9.062-5.238,9.758-6.963
				C21.973,12.697,22,12.639,22,12.494C22,12.351,21.973,12.293,21.836,11.955z M12.077,18c-5.449,0-7.485-4.317-7.939-5.5
				C4.592,11.317,6.628,7,12.077,7c4.875,0,7.017,3.455,7.74,5.029c0.085,0.187,0.15,0.346,0.199,0.471
				C19.562,13.683,17.527,18,12.077,18z M12.031,9.113c-1.93,0-3.5,1.57-3.5,3.5S10.102,16,12.031,16s3.5-1.457,3.5-3.387
				S13.961,9.113,12.031,9.113z M12.031,14.113c-0.827,0-1.5-0.673-1.5-1.5s0.673-1.5,1.5-1.5s1.5,0.673,1.5,1.5
				S12.858,14.113,12.031,14.113z"/>
		</g>
	</g>
</g>
<g id="Layer_2">
</g>
</svg>
