<?xml version="1.0" encoding="iso-8859-1"?>
<!-- Generator: Adobe Illustrator 16.0.0, SVG Export Plug-In . SVG Version: 6.00 Build 0)  -->
<!DOCTYPE svg PUBLIC "-//W3C//DTD SVG 1.1//EN" "http://www.w3.org/Graphics/SVG/1.1/DTD/svg11.dtd">
<svg version="1.1" xmlns="http://www.w3.org/2000/svg" xmlns:xlink="http://www.w3.org/1999/xlink" x="0px" y="0px" width="29px"
	 height="25px" viewBox="0 0 29 25" style="enable-background:new 0 0 29 25;" xml:space="preserve">
<g id="Layer_1">
	<g>
		<g>
			<path d="M6.484,13.967c-1.632,0-2.954,1.355-2.954,3.027s1.322,3.025,2.954,3.025s2.953-1.354,2.953-3.025
				S8.116,13.967,6.484,13.967z M6.484,18.291c-0.697,0-1.266-0.584-1.266-1.297c0-0.717,0.568-1.297,1.266-1.297
				c0.698,0,1.265,0.58,1.265,1.297C7.749,17.707,7.183,18.291,6.484,18.291z M3.604,14H1v3c0,1,1,1,1,1h0.646
				C2.646,18,1.854,15.792,3.604,14z M10.229,18H16v-4H9C10.333,14.938,10.729,16.562,10.229,18z M22.515,13.967
				c-1.632,0-2.952,1.355-2.952,3.027s1.32,3.025,2.952,3.025s2.954-1.354,2.954-3.025S24.146,13.967,22.515,13.967z M22.515,18.291
				c-0.697,0-1.265-0.584-1.265-1.297c0-0.717,0.567-1.297,1.265-1.297c0.698,0,1.267,0.58,1.267,1.297
				C23.781,17.707,23.213,18.291,22.515,18.291z M27.594,9.25l-1.877-3.114c-0.683-1.049-1.83-1.679-3.06-1.679H18.72
				C17.786,4.457,17,5.046,17,6v12h1.703c-0.516-3.625,1.64-5,3.812-5c2.168,0,4.318,1.771,3.881,4.396h0.043
				C27.37,17.396,28,15.955,28,15v-4C28,10.233,28.01,9.888,27.594,9.25z M20.609,10C19.984,10,20,9.44,20,9.203V6.766
				C20,6.172,20.453,6,20.625,6H23c0.844,0,1.407,0.612,1.775,1.181L26.344,10C25.344,10,20.609,10,20.609,10z M13.657,1H3.53
				C2.134,1,1,2.568,1,4v9h15V4C16,2.568,15.053,1,13.657,1z"/>
		</g>
	</g>
</g>
<g id="Layer_2">
</g>
</svg>
