<?xml version="1.0" encoding="iso-8859-1"?>
<!-- Generator: Adobe Illustrator 16.0.0, SVG Export Plug-In . SVG Version: 6.00 Build 0)  -->
<!DOCTYPE svg PUBLIC "-//W3C//DTD SVG 1.1//EN" "http://www.w3.org/Graphics/SVG/1.1/DTD/svg11.dtd">
<svg version="1.1" xmlns="http://www.w3.org/2000/svg" xmlns:xlink="http://www.w3.org/1999/xlink" x="0px" y="0px" width="25px"
	 height="25px" viewBox="0 0 25 25" style="enable-background:new 0 0 25 25;" xml:space="preserve">
<g id="Layer_1">
	<g id="Like_2">
		<path d="M16.831,24c-0.001,0-0.001,0-0.002,0l-2.45-0.004c-3.124,0-5.368-0.272-7.062-0.858c-0.359-0.126-0.671-0.265-0.964-0.396
			c-0.465-0.207-0.802-0.357-1.128-0.357H3.613C1.879,22.385,1,21.546,1,19.891l0.001-7.369c0-1.586,1.025-2.611,2.612-2.611
			L3.93,9.913c0.476,0,1.057-0.041,1.44-0.341l0.028-0.054C5.441,9.437,5.465,9.393,5.49,9.35C5.525,9.262,5.58,9.165,5.647,9.073
			C5.937,8.587,6.259,8.14,6.56,7.81c0.651-0.711,1.27-1.088,1.766-1.392c0.589-0.36,0.944-0.577,1.276-1.225
			c0.705-1.373,0.862-2.04,0.995-2.768c0.229-1.371,0.932-2.187,1.879-2.187c2.108,0,3.418,1.31,3.418,3.418
			c0,1.92-0.429,3.496-0.817,4.53l4.841,0.609c1.364,0.057,2.487,1.35,2.423,2.875c-0.029,0.652-0.281,1.241-0.681,1.693
			c0.356,0.483,0.558,1.089,0.531,1.736c-0.038,0.79-0.4,1.486-0.952,1.96c0.211,0.377,0.329,0.811,0.329,1.275
			c0,1.439-0.968,2.398-2.074,2.685c0.021,0.158,0.029,0.327,0.022,0.507c-0.002,0.135-0.015,0.343-0.036,0.456
			c-0.078,0.479-0.282,0.872-0.619,1.18C18.301,23.704,17.592,24,16.831,24z M3.058,20.328c0.015,0,0.152,0.057,0.555,0.057h1.612
			c0.752,0,1.357,0.271,1.943,0.531c0.246,0.109,0.509,0.229,0.807,0.333c1.453,0.502,3.55,0.747,6.404,0.747L16.832,22
			c0.235,0,0.458-0.1,0.66-0.295c0.021-0.088,0.024-0.169,0.024-0.204c0.017-0.413-0.115-0.457-0.186-0.479
			c-0.378-0.125-0.646-0.461-0.683-0.856c-0.032-0.334,0.105-0.656,0.358-0.865c0.208-0.174,0.49-0.265,0.765-0.233l0.99,0.041
			c0,0,0.001,0,0.002,0c0.305,0,0.805-0.162,0.805-0.772c0-0.429-0.385-0.644-0.743-0.662h-0.003l0,0
			c-0.552-0.027-0.978-0.497-0.95-1.048c0.027-0.552,0.503-0.979,1.048-0.95l0.557,0.027c0.001,0,0.001,0,0.001,0
			c0.394,0,0.697-0.304,0.716-0.691c0.017-0.391-0.281-0.729-0.663-0.746c-0.536-0.024-0.954-0.467-0.954-0.998
			c0-0.016,0-0.031,0.001-0.047c0.025-0.552,0.492-0.969,1.045-0.953c0.001,0,0.001,0,0.002,0c0.4,0,0.702-0.3,0.719-0.683
			c0.016-0.369-0.207-0.781-0.594-0.798l-6.269-0.785c-0.335-0.042-0.626-0.25-0.774-0.554s-0.133-0.662,0.041-0.951
			c0.01-0.017,1.147-1.983,1.147-4.839c0-0.791-0.208-1.336-1.182-1.41c-0.057,0.133-0.115,0.335-0.14,0.498
			c-0.191,1.041-0.444,1.905-1.191,3.361c-0.588,1.148-1.345,1.611-2.013,2.019C8.92,8.399,8.495,8.658,8.037,9.158
			C7.958,9.245,7.668,9.58,7.336,10.146c-0.012,0.021-0.025,0.042-0.039,0.062c-0.027,0.058-0.05,0.099-0.074,0.14l-0.153,0.29
			c-0.048,0.098-0.112,0.187-0.189,0.264c-0.906,0.907-2.118,1.012-2.951,1.012L3.613,11.91c-0.475,0-0.612,0.137-0.612,0.611
			L3,19.891c0,0.312,0.048,0.42,0.056,0.438C3.056,20.328,3.057,20.328,3.058,20.328z"/>
	</g>
</g>
<g id="Layer_2">
</g>
</svg>
