<?xml version="1.0" encoding="iso-8859-1"?>
<!-- Generator: Adobe Illustrator 16.0.0, SVG Export Plug-In . SVG Version: 6.00 Build 0)  -->
<!DOCTYPE svg PUBLIC "-//W3C//DTD SVG 1.1//EN" "http://www.w3.org/Graphics/SVG/1.1/DTD/svg11.dtd">
<svg version="1.1" xmlns="http://www.w3.org/2000/svg" xmlns:xlink="http://www.w3.org/1999/xlink" x="0px" y="0px" width="25px"
	 height="25px" viewBox="0 0 25 25" style="enable-background:new 0 0 25 25;" xml:space="preserve">
<g id="Layer_1">
	<g id="Like_2">
		<path d="M8.168,0C8.169,0,8.169,0,8.17,0l2.45,0.004c3.124,0,5.368,0.272,7.063,0.858c0.358,0.126,0.671,0.265,0.964,0.396
			c0.465,0.207,0.802,0.357,1.128,0.357h1.611C23.121,1.615,24,2.454,24,4.109l-0.001,7.369c0,1.586-1.025,2.611-2.612,2.611
			l-0.317-0.002c-0.476,0-1.057,0.041-1.44,0.34l-0.028,0.055c-0.042,0.081-0.066,0.125-0.091,0.168
			c-0.035,0.088-0.09,0.186-0.157,0.276c-0.289,0.486-0.612,0.933-0.913,1.264c-0.651,0.711-1.27,1.089-1.766,1.392
			c-0.589,0.36-0.944,0.577-1.276,1.225c-0.704,1.373-0.862,2.041-0.995,2.769c-0.229,1.37-0.932,2.187-1.879,2.187
			c-2.108,0-3.418-1.31-3.418-3.418c0-1.92,0.429-3.496,0.817-4.529l-4.841-0.609c-1.364-0.057-2.487-1.35-2.423-2.875
			c0.029-0.652,0.281-1.242,0.681-1.693C2.983,10.153,2.782,9.548,2.808,8.9c0.038-0.79,0.4-1.486,0.952-1.96
			C3.549,6.563,3.431,6.13,3.431,5.665c0-1.439,0.968-2.398,2.074-2.685C5.484,2.822,5.476,2.653,5.483,2.474
			c0.002-0.135,0.015-0.343,0.036-0.456c0.078-0.479,0.282-0.872,0.619-1.18C6.699,0.296,7.408,0,8.168,0z M21.942,3.672
			c-0.015,0-0.152-0.057-0.556-0.057h-1.611c-0.752,0-1.357-0.271-1.943-0.531c-0.246-0.109-0.509-0.229-0.807-0.333
			c-1.453-0.502-3.551-0.747-6.405-0.747L8.167,2c-0.235,0-0.458,0.1-0.66,0.295C7.487,2.383,7.483,2.464,7.483,2.499
			C7.466,2.912,7.598,2.956,7.668,2.979c0.378,0.125,0.646,0.461,0.683,0.856C8.383,4.169,8.246,4.491,7.993,4.7
			c-0.208,0.174-0.49,0.265-0.765,0.233l-0.99-0.041c0,0-0.001,0-0.002,0c-0.305,0-0.805,0.162-0.805,0.772
			c0,0.429,0.385,0.644,0.743,0.662h0.003l0,0c0.552,0.027,0.978,0.497,0.95,1.048C7.1,7.927,6.625,8.354,6.08,8.325L5.523,8.298
			c-0.001,0-0.001,0-0.001,0c-0.394,0-0.697,0.304-0.716,0.691C4.79,9.38,5.087,9.718,5.469,9.735
			c0.536,0.024,0.954,0.467,0.954,0.998c0,0.016,0,0.031-0.001,0.047c-0.025,0.552-0.492,0.97-1.045,0.953c-0.001,0-0.001,0-0.002,0
			c-0.4,0-0.702,0.3-0.719,0.683c-0.016,0.369,0.207,0.781,0.594,0.798l6.269,0.785c0.335,0.042,0.626,0.251,0.774,0.555
			s0.133,0.661-0.041,0.951c-0.01,0.017-1.147,1.983-1.147,4.839c0,0.791,0.208,1.337,1.182,1.41
			c0.057-0.134,0.115-0.335,0.14-0.498c0.191-1.04,0.444-1.904,1.19-3.361c0.589-1.148,1.346-1.611,2.014-2.019
			c0.449-0.274,0.874-0.534,1.332-1.034c0.078-0.086,0.369-0.421,0.701-0.988c0.012-0.021,0.025-0.041,0.039-0.062
			c0.027-0.058,0.05-0.099,0.073-0.14l0.153-0.289c0.048-0.098,0.112-0.187,0.188-0.264c0.906-0.907,2.118-1.012,2.951-1.012
			l0.317,0.002c0.475,0,0.612-0.137,0.612-0.611L22,4.109C22,3.798,21.952,3.689,21.942,3.672
			C21.943,3.672,21.943,3.672,21.942,3.672z"/>
	</g>
</g>
<g id="Layer_2">
</g>
</svg>
