<?xml version="1.0" encoding="iso-8859-1"?>
<!-- Generator: Adobe Illustrator 16.0.0, SVG Export Plug-In . SVG Version: 6.00 Build 0)  -->
<!DOCTYPE svg PUBLIC "-//W3C//DTD SVG 1.1//EN" "http://www.w3.org/Graphics/SVG/1.1/DTD/svg11.dtd">
<svg version="1.1" id="Layer_1" xmlns="http://www.w3.org/2000/svg" xmlns:xlink="http://www.w3.org/1999/xlink" x="0px" y="0px"
	 width="99px" height="70px" viewBox="0 0 99 70" style="enable-background:new 0 0 99 70;" xml:space="preserve">
<g>
	<path style="fill:#FFDC00;" d="M96.201,12.339c-1.186-5.152-5.4-8.953-10.473-9.52C73.715,1.478,61.557,1.471,49.453,1.478
		c-12.105-0.007-24.266,0-36.279,1.341c-5.07,0.567-9.281,4.368-10.467,9.52C1.019,19.676,1,27.685,1,35.238
		c0,7.555,0,15.562,1.688,22.898c1.184,5.15,5.396,8.952,10.469,9.52c12.012,1.343,24.172,1.35,36.276,1.343
		c12.107,0.007,24.265,0,36.275-1.343c5.07-0.566,9.285-4.367,10.471-9.52c1.689-7.337,1.695-15.345,1.695-22.898
		S97.889,19.676,96.201,12.339z M36.936,50.275c0-10.717,0-21.32,0-32.037c10.268,5.356,20.467,10.678,30.799,16.067
		C57.434,39.648,47.23,44.937,36.936,50.275z"/>
</g>
</svg>
