<?xml version="1.0" encoding="iso-8859-1"?>
<!-- Generator: Adobe Illustrator 16.0.0, SVG Export Plug-In . SVG Version: 6.00 Build 0)  -->
<!DOCTYPE svg PUBLIC "-//W3C//DTD SVG 1.1//EN" "http://www.w3.org/Graphics/SVG/1.1/DTD/svg11.dtd">
<svg version="1.1" id="Layer_1" xmlns="http://www.w3.org/2000/svg" xmlns:xlink="http://www.w3.org/1999/xlink" x="0px" y="0px"
	 width="25px" height="25px" viewBox="0 0 25 25" style="enable-background:new 0 0 25 25;" xml:space="preserve">
<path d="M22.048,3.903c-1.196-1.195-2.786-1.854-4.479-1.854s-3.283,0.659-4.479,1.854l-0.59,0.59l-0.59-0.59
	c-1.196-1.195-2.787-1.854-4.479-1.854S4.147,2.708,2.951,3.903c-2.47,2.471-2.47,6.49,0,8.959l8.851,8.85
	c0.146,0.146,0.325,0.234,0.514,0.27C12.379,21.994,12.441,22,12.506,22c0.25,0,0.501-0.096,0.691-0.288l8.851-8.85
	C24.519,10.394,24.519,6.374,22.048,3.903z M20.664,11.479L12.5,19.644l-8.165-8.165c-1.707-1.706-1.707-4.483,0-6.19
	c0.827-0.827,1.927-1.281,3.096-1.281s2.269,0.454,3.096,1.281l1.281,1.282c0.368,0.366,1.018,0.366,1.385,0l1.281-1.282
	c0.826-0.827,1.926-1.281,3.096-1.281c1.169,0,2.269,0.454,3.095,1.281C22.372,6.995,22.372,9.772,20.664,11.479z"/>
</svg>
