<?xml version="1.0" encoding="iso-8859-1"?>
<!-- Generator: Adobe Illustrator 16.0.0, SVG Export Plug-In . SVG Version: 6.00 Build 0)  -->
<!DOCTYPE svg PUBLIC "-//W3C//DTD SVG 1.1//EN" "http://www.w3.org/Graphics/SVG/1.1/DTD/svg11.dtd">
<svg version="1.1" id="Layer_1" xmlns="http://www.w3.org/2000/svg" xmlns:xlink="http://www.w3.org/1999/xlink" x="0px" y="0px"
	 width="25.979px" height="25px" viewBox="0 0 25.979 25" style="enable-background:new 0 0 25.979 25;" xml:space="preserve">
<g>
	<path style="fill:#231F20;" d="M13,8.057l1.104,1.984l0.228,0.409l0.459,0.087l2.032,0.387l-1.489,1.33l-0.45,0.403l0.146,0.585
		l0.473,1.891l-2.056-1.027L13,13.882l-0.447,0.224l-2.055,1.027l0.473-1.891l0.146-0.585l-0.45-0.402l-1.488-1.33l2.032-0.387
		l0.459-0.087l0.228-0.409L13,8.057 M13,6l-1.977,3.555l-4.021,0.766L10,13l-1,4l4-2l4,2l-1-4l3-2.679l-4.021-0.766L13,6L13,6z"/>
</g>
</svg>
