<?xml version="1.0" encoding="utf-8"?>
<!-- Generator: Adobe Illustrator 21.0.2, SVG Export Plug-In . SVG Version: 6.00 Build 0)  -->
<svg version="1.1" id="Слой_1" xmlns="http://www.w3.org/2000/svg" xmlns:xlink="http://www.w3.org/1999/xlink" x="0px" y="0px"
	 viewBox="0 0 37 37.8" style="enable-background:new 0 0 37 37.8;" xml:space="preserve">
<style type="text/css">
	.st0{fill:#CCC8BD;}
</style>
<g id="Layer_1">
	<g>
		<path class="st0" d="M18.6,1.9C8.9,1.9,1.1,9.7,1.1,19.3s7.8,17.4,17.4,17.4c9.6,0,17.4-7.8,17.4-17.4C36,9.7,28.2,1.9,18.6,1.9z
			 M18.4,6.4c3.4,0,6.2,2.8,6.2,6.3c0,3.4-2.8,6.1-6.3,6.1c-3.4,0-6.2-2.8-6.2-6.2C12.2,9.2,15,6.4,18.4,6.4z M25.4,21.3
			c-0.8,0.8-1.7,1.3-2.7,1.7c-1,0.4-2,0.6-3.1,0.7c0.2,0.2,0.2,0.3,0.3,0.4c1.4,1.4,2.8,2.8,4.2,4.3c0.5,0.5,0.6,1.1,0.3,1.6
			c-0.3,0.6-0.9,1-1.6,1c-0.4,0-0.7-0.2-1-0.5c-1.1-1.1-2.2-2.1-3.2-3.2c-0.3-0.3-0.5-0.3-0.7,0c-1.1,1.1-2.2,2.2-3.3,3.3
			c-0.5,0.5-1.1,0.6-1.6,0.3c-0.6-0.3-1-0.9-1-1.5c0-0.4,0.2-0.7,0.5-1c1.4-1.4,2.8-2.8,4.2-4.2c0.1-0.1,0.2-0.2,0.3-0.3
			c-1.9-0.2-3.6-0.7-5.1-1.8c-0.2-0.1-0.4-0.3-0.5-0.4c-0.6-0.6-0.7-1.3-0.2-2.1c0.4-0.6,1.2-0.8,1.9-0.4c0.1,0.1,0.3,0.2,0.4,0.3
			c2.7,1.9,6.5,1.9,9.2,0.1c0.3-0.2,0.6-0.4,0.9-0.5c0.7-0.2,1.3,0.1,1.6,0.6C25.9,20.1,25.9,20.8,25.4,21.3z"/>
		<path class="st0" d="M18.4,15.7c1.7,0,3-1.4,3-3c0-1.7-1.3-3-3-3c-1.7,0-3.1,1.4-3,3.1C15.3,14.3,16.7,15.7,18.4,15.7z"/>
	</g>
</g>
<g id="Layer_2">
</g>
</svg>
