<?xml version="1.0" encoding="utf-8"?>
<!-- Generator: Adobe Illustrator 21.0.2, SVG Export Plug-In . SVG Version: 6.00 Build 0)  -->
<svg version="1.1" id="Слой_1" xmlns="http://www.w3.org/2000/svg" xmlns:xlink="http://www.w3.org/1999/xlink" x="0px" y="0px"
	 viewBox="0 0 37 37.8" style="enable-background:new 0 0 37 37.8;" xml:space="preserve">
<style type="text/css">
	.st0{fill:#CCC8BD;}
</style>
<g id="Layer_1">
	<path class="st0" d="M18.6,1.9C8.9,1.9,1.1,9.7,1.1,19.3s7.8,17.4,17.4,17.4c9.6,0,17.4-7.8,17.4-17.4C36,9.7,28.2,1.9,18.6,1.9z
		 M29.2,26.4l-3.2,0c0,0-0.7,0.1-1.6-0.5c-1.2-0.8-2.3-3-3.2-2.7c-0.9,0.3-0.9,2.2-0.9,2.2s0,0.4-0.2,0.6c-0.2,0.2-0.7,0.3-0.7,0.3
		H18c0,0-3.2,0.2-6-2.7c-3-3.2-5.7-9.5-5.7-9.5s-0.2-0.4,0-0.6C6.5,13.4,7,13.4,7,13.4l3.4,0c0,0,0.3,0.1,0.6,0.2
		c0.2,0.1,0.3,0.4,0.3,0.4s0.6,1.4,1.3,2.7c1.4,2.5,2.1,3,2.6,2.8c0.7-0.4,0.5-3.5,0.5-3.5s0-1.1-0.4-1.6c-0.3-0.4-0.8-0.5-1.1-0.5
		c-0.2,0,0.1-0.5,0.5-0.7c0.6-0.3,1.7-0.3,3-0.3c1,0,1.3,0.1,1.7,0.2c1.2,0.3,0.8,1.4,0.8,4c0,0.8-0.2,2,0.5,2.4
		c0.3,0.2,0.9,0,2.5-2.7c0.8-1.3,1.3-2.8,1.3-2.8s0.1-0.3,0.3-0.4c0.2-0.1,0.5-0.1,0.5-0.1l3.6,0c0,0,1.1-0.1,1.3,0.4
		c0.2,0.5-0.4,1.7-1.9,3.7c-2.4,3.2-2.7,2.9-0.7,4.8C29.6,24,30,24.9,30,25C30.8,26.3,29.2,26.4,29.2,26.4z"/>
</g>
<g id="Layer_2">
</g>
</svg>
