<?xml version="1.0" encoding="utf-8"?>
<!-- Generator: Adobe Illustrator 21.0.2, SVG Export Plug-In . SVG Version: 6.00 Build 0)  -->
<svg version="1.1" id="Слой_1" xmlns="http://www.w3.org/2000/svg" xmlns:xlink="http://www.w3.org/1999/xlink" x="0px" y="0px"
	 viewBox="0 0 37 37.8" style="enable-background:new 0 0 37 37.8;" xml:space="preserve">
<style type="text/css">
	.st0{fill:#CCC8BD;}
</style>
<g id="Layer_1">
	<path class="st0" d="M18.6,1.9C8.9,1.9,1.1,9.7,1.1,19.3s7.8,17.4,17.4,17.4c9.6,0,17.4-7.8,17.4-17.4C36,9.7,28.2,1.9,18.6,1.9z
		 M28.6,15.3l0,0.6c0,6.3-4.8,13.5-13.5,13.5c-2.7,0-5.2-0.8-7.3-2.1c0.4,0,0.8,0.1,1.1,0.1c2.2,0,4.3-0.8,5.9-2
		c-2.1,0-3.8-1.4-4.4-3.3c0.3,0.1,0.6,0.1,0.9,0.1c0.4,0,0.9-0.1,1.3-0.2c-2.2-0.4-3.8-2.4-3.8-4.7v-0.1c0.6,0.4,1.4,0.6,2.2,0.6
		c-1.3-0.9-2.1-2.3-2.1-4c0-0.9,0.2-1.7,0.6-2.4c2.3,2.9,5.9,4.8,9.8,5c-0.1-0.3-0.1-0.7-0.1-1.1c0-2.6,2.1-4.8,4.8-4.8
		c1.4,0,2.6,0.6,3.5,1.5c1.1-0.2,2.1-0.6,3-1.2c-0.4,1.1-1.1,2-2.1,2.6c1-0.1,1.9-0.4,2.7-0.8C30.4,13.8,29.6,14.6,28.6,15.3z"/>
</g>
<g id="Layer_2">
</g>
</svg>
