<?xml version="1.0" encoding="utf-8"?>
<!-- Generator: Adobe Illustrator 21.0.2, SVG Export Plug-In . SVG Version: 6.00 Build 0)  -->
<svg version="1.1" id="Слой_1" xmlns="http://www.w3.org/2000/svg" xmlns:xlink="http://www.w3.org/1999/xlink" x="0px" y="0px"
	 viewBox="0 0 37 37.8" style="enable-background:new 0 0 37 37.8;" xml:space="preserve">
<style type="text/css">
	.st0{fill:#CCC8BD;}
</style>
<g id="Layer_1">
	<g>
		<path class="st0" d="M25.6,10.3H11.7c-1.1,0-1.9,0.9-1.9,1.9v4.1h4.3c1.1-1.3,2.7-2.1,4.5-2.1s3.5,0.8,4.5,2.1h4.3v-4.1
			C27.5,11.1,26.6,10.3,25.6,10.3z M25.9,14.1c0,0.4-0.3,0.8-0.8,0.8h-1.8c-0.4,0-0.8-0.3-0.8-0.8v-1.8c0-0.4,0.3-0.8,0.8-0.8h1.8
			c0.4,0,0.8,0.3,0.8,0.8V14.1z"/>
		<path class="st0" d="M18.6,16.2c-2.6,0-4.8,2.1-4.8,4.8c0,2.6,2.1,4.8,4.8,4.8s4.8-2.1,4.8-4.8C23.4,18.4,21.3,16.2,18.6,16.2z
			 M18.6,24c-1.7,0-3.1-1.4-3.1-3.1s1.4-3.1,3.1-3.1s3.1,1.4,3.1,3.1C21.7,22.7,20.3,24,18.6,24z"/>
		<path class="st0" d="M18.6,1.9C8.9,1.9,1.1,9.7,1.1,19.3s7.8,17.4,17.4,17.4s17.4-7.8,17.4-17.4C36,9.7,28.2,1.9,18.6,1.9z
			 M29.3,27.1c0,1.6-1.3,2.9-2.9,2.9H10.9C9.3,30,8,28.7,8,27.1V11.6c0-1.6,1.3-2.9,2.9-2.9h15.5c1.6,0,2.9,1.3,2.9,2.9V27.1z"/>
	</g>
</g>
<g id="Layer_2">
</g>
</svg>
