<?xml version="1.0" encoding="utf-8"?>
<!-- Generator: Adobe Illustrator 21.0.2, SVG Export Plug-In . SVG Version: 6.00 Build 0)  -->
<svg version="1.1" id="Слой_1" xmlns="http://www.w3.org/2000/svg" xmlns:xlink="http://www.w3.org/1999/xlink" x="0px" y="0px"
	 viewBox="0 0 37 37.8" style="enable-background:new 0 0 37 37.8;" xml:space="preserve">
<style type="text/css">
	.st0{fill:#CCC8BD;}
</style>
<g id="Layer_1">
	<path class="st0" d="M18.6,1.9C8.9,1.9,1.1,9.7,1.1,19.3s7.8,17.4,17.4,17.4c9.6,0,17.4-7.8,17.4-17.4C36,9.7,28.2,1.9,18.6,1.9z
		 M14.9,27.8c-4.6,0-8.4-3.8-8.4-8.4c0-4.6,3.8-8.4,8.4-8.4c2.2,0,4.2,0.8,5.7,2.2l-2.5,2.4c-0.9-0.7-2-1.2-3.2-1.2
		c-2.7,0-4.9,2.2-4.9,4.9s2.2,4.9,4.9,4.9c2.1,0,3.9-1.3,4.6-3.2h-4.7v-3.5h4.7h3.6h0c0.1,0.6,0.2,1.2,0.2,1.8
		C23.3,24,19.6,27.8,14.9,27.8z M30.1,20v2.9H28V20H25v-2.1H28v-2.9h2.1v2.9H33V20H30.1z"/>
</g>
<g id="Layer_2">
</g>
</svg>
