<?xml version="1.0" encoding="utf-8"?>
<!-- Generator: Adobe Illustrator 21.0.2, SVG Export Plug-In . SVG Version: 6.00 Build 0)  -->
<svg version="1.1" id="Слой_1" xmlns="http://www.w3.org/2000/svg" xmlns:xlink="http://www.w3.org/1999/xlink" x="0px" y="0px"
	 viewBox="0 0 37 37.8" style="enable-background:new 0 0 37 37.8;" xml:space="preserve">
<style type="text/css">
	.st0{fill:#CCC8BD;}
</style>
<g id="Layer_1">
	<g>
		<polygon class="st0" points="10.1,21 11.5,21 11.5,28.7 12.9,28.7 12.9,21 14.3,21 14.3,19.7 10.1,19.7 		"/>
		<path class="st0" d="M21.5,21.9c-0.4,0-0.9,0.2-1.3,0.7v-2.9H19v9h1.2V28c0.4,0.5,0.8,0.7,1.3,0.7c0.5,0,0.8-0.3,1-0.8
			c0.1-0.3,0.1-0.7,0.1-1.3V24c0-0.6,0-1.1-0.1-1.3C22.3,22.1,22,21.9,21.5,21.9z M21.4,26.8c0,0.6-0.2,0.9-0.5,0.9
			c-0.2,0-0.4-0.1-0.6-0.3v-4.1c0.2-0.2,0.4-0.3,0.6-0.3c0.4,0,0.5,0.3,0.5,0.9V26.8z"/>
		<path class="st0" d="M17.8,15.8c0.4,0,0.6-0.3,0.6-0.9V12c0-0.6-0.2-0.9-0.6-0.9s-0.6,0.3-0.6,0.9v2.8
			C17.2,15.5,17.4,15.8,17.8,15.8z"/>
		<path class="st0" d="M16.8,27.1c-0.3,0.4-0.5,0.6-0.8,0.6c-0.2,0-0.3-0.1-0.3-0.3c0,0,0-0.2,0-0.5V22h-1.2v5.3c0,0.5,0,0.8,0.1,1
			c0.1,0.3,0.4,0.5,0.8,0.5c0.4,0,0.9-0.3,1.4-0.8v0.7H18V22h-1.2C16.8,22,16.8,27.1,16.8,27.1z"/>
		<path class="st0" d="M25.4,21.9c-0.6,0-1.1,0.2-1.5,0.7c-0.3,0.3-0.4,0.9-0.4,1.6v2.3c0,0.7,0.1,1.2,0.4,1.6
			c0.4,0.5,0.8,0.7,1.5,0.7c0.6,0,1.1-0.2,1.5-0.7c0.1-0.2,0.2-0.5,0.3-0.7c0-0.1,0-0.4,0-0.8v-0.2h-1.2c0,0.5,0,0.8,0,0.8
			c-0.1,0.3-0.2,0.5-0.5,0.5c-0.4,0-0.6-0.3-0.6-0.9v-1.2h2.4v-1.4c0-0.7-0.1-1.2-0.4-1.6C26.5,22.1,26,21.9,25.4,21.9z M26,24.5
			h-1.2v-0.6c0-0.6,0.2-0.9,0.6-0.9c0.4,0,0.6,0.3,0.6,0.9L26,24.5L26,24.5z"/>
		<path class="st0" d="M18.6,1.9C8.9,1.9,1.1,9.7,1.1,19.3s7.8,17.4,17.4,17.4c9.6,0,17.4-7.8,17.4-17.4C36,9.7,28.2,1.9,18.6,1.9z
			 M20.6,10.1h1.2v5c0,0.3,0,0.4,0,0.5c0,0.2,0.1,0.3,0.3,0.3c0.2,0,0.5-0.2,0.8-0.6v-5.2h1.2v6.8h-1.2v-0.7c-0.5,0.6-1,0.8-1.4,0.8
			c-0.4,0-0.7-0.2-0.8-0.5c-0.1-0.2-0.1-0.5-0.1-1C20.6,15.4,20.6,10.1,20.6,10.1z M16,12.3c0-0.7,0.1-1.3,0.4-1.6
			c0.3-0.5,0.8-0.7,1.4-0.7c0.6,0,1.1,0.2,1.4,0.7c0.3,0.3,0.4,0.9,0.4,1.6v2.4c0,0.7-0.1,1.3-0.4,1.6c-0.3,0.5-0.8,0.7-1.4,0.7
			c-0.6,0-1.1-0.2-1.4-0.7c-0.3-0.3-0.4-0.9-0.4-1.6V12.3z M12.7,7.8l1,3.6l0.9-3.6H16l-1.6,5.4v3.7H13v-3.7
			c-0.1-0.7-0.4-1.6-0.8-2.9c-0.3-0.8-0.6-1.7-0.9-2.5C11.3,7.8,12.7,7.8,12.7,7.8z M28.3,29.3c-0.2,1.1-1.1,1.9-2.2,2
			c-2.5,0.3-5,0.3-7.5,0.3c-2.5,0-5,0-7.5-0.3c-1-0.1-1.9-0.9-2.2-2c-0.3-1.5-0.3-3.2-0.3-4.7c0-1.6,0-3.2,0.4-4.7
			c0.2-1.1,1.1-1.9,2.2-2c2.5-0.3,5-0.3,7.5-0.3c2.5,0,5,0,7.5,0.3c1,0.1,1.9,0.9,2.2,2c0.4,1.5,0.3,3.2,0.3,4.7
			C28.7,26.1,28.7,27.7,28.3,29.3z"/>
	</g>
</g>
<g id="Layer_2">
</g>
</svg>
